<?xml version="1.0" encoding="UTF-8"?>
<!-- Generated by Pixelmator Pro 3.3.12 -->
<svg width="30" height="30" viewBox="0 0 30 30" xmlns="http://www.w3.org/2000/svg">
    <path id="Path" fill="#037101" fill-rule="evenodd" stroke="none" d="M 2.19672 27.803249 C 2.3e-05 25.606651 2.3e-05 22.070999 2.3e-05 15 C 2.3e-05 7.928925 2.3e-05 4.393394 2.19672 2.196705 C 4.393425 0 7.928956 0 15 0 C 22.07115 0 25.606651 0 27.803249 2.196705 C 30 4.393394 30 7.928925 30 15 C 30 22.070999 30 25.606651 27.803249 27.803249 C 25.606651 30 22.07115 30 15 30 C 7.928956 30 4.393425 30 2.19672 27.803249 Z M 9.704535 18.04545 C 10.14387 18.4848 10.856175 18.4848 11.295526 18.04545 L 15 14.34099 L 18.70455 18.04545 C 19.1439 18.4848 19.856251 18.4848 20.29545 18.04545 C 20.7348 17.6061 20.7348 16.8939 20.29545 16.45455 L 15.79545 11.954504 C 15.58455 11.74353 15.29835 11.625 15 11.625 C 14.70165 11.625 14.41551 11.74353 14.204535 11.954504 L 9.704535 16.45455 C 9.265185 16.8939 9.265185 17.6061 9.704535 18.04545 Z"/>
</svg>
