<?xml version="1.0" encoding="UTF-8"?>
<!-- Generated by Pixelmator Pro 3.5.7 -->
<svg width="30" height="30" viewBox="0 0 30 30" xmlns="http://www.w3.org/2000/svg">
    <path id="Rectangle" fill="#ffffff" fill-rule="evenodd" stroke="none" d="M 8 21 L 22 21 L 22 7 L 8 7 Z"/>
    <path id="onearrowupgreenfilled" fill="#037101" fill-rule="evenodd" stroke="none" visibility="hidden" d="M 2.19672 27.803249 C 2.3e-05 25.606651 2.3e-05 22.070999 2.3e-05 15 C 2.3e-05 7.928925 2.3e-05 4.393394 2.19672 2.196705 C 4.393425 0 7.928956 0 15 0 C 22.07115 0 25.606651 0 27.803249 2.196705 C 30 4.393394 30 7.928925 30 15 C 30 22.070999 30 25.606651 27.803249 27.803249 C 25.606651 30 22.07115 30 15 30 C 7.928956 30 4.393425 30 2.19672 27.803249 Z M 9.704535 18.04545 C 10.14387 18.4848 10.856175 18.4848 11.295526 18.04545 L 15 14.34099 L 18.70455 18.04545 C 19.1439 18.4848 19.856251 18.4848 20.29545 18.04545 C 20.7348 17.6061 20.7348 16.8939 20.29545 16.45455 L 15.79545 11.954504 C 15.58455 11.74353 15.29835 11.625 15 11.625 C 14.70165 11.625 14.41551 11.74353 14.204535 11.954504 L 9.704535 16.45455 C 9.265185 16.8939 9.265185 17.6061 9.704535 18.04545 Z"/>
    <path id="twoarrowsupgreenfilled" fill="#037101" fill-rule="evenodd" stroke="none" visibility="hidden" d="M 2.19672 27.803249 C 4.393425 30 7.928956 30 15 30 C 22.07115 30 25.606651 30 27.803249 27.803249 C 30 25.606651 30 22.070999 30 15 C 30 7.928925 30 4.393394 27.803249 2.196705 C 25.606651 0 22.07115 0 15 0 C 7.928956 0 4.393425 0 2.19672 2.196705 C 2.3e-05 4.393394 2.3e-05 7.928925 2.3e-05 15 C 2.3e-05 22.070999 2.3e-05 25.606651 2.19672 27.803249 Z M 9.704535 13.454506 C 9.265185 13.893841 9.265185 14.60616 9.704535 15.04545 C 10.14387 15.4848 10.856175 15.4848 11.295526 15.04545 L 15 11.340988 L 18.70455 15.04545 C 19.1439 15.4848 19.856251 15.4848 20.29545 15.04545 C 20.7348 14.60616 20.7348 13.893841 20.29545 13.454506 L 15.79545 8.954504 C 15.356251 8.515171 14.64387 8.515171 14.20452 8.954504 L 9.704535 13.454506 Z M 9.704535 21.04545 C 9.265185 20.6061 9.265185 19.8939 9.704535 19.45455 L 14.20452 14.954506 C 14.64387 14.515169 15.356251 14.515169 15.79545 14.954506 L 20.29545 19.45455 C 20.7348 19.8939 20.7348 20.6061 20.29545 21.04545 C 19.856251 21.4848 19.1439 21.4848 18.70455 21.04545 L 15 17.341051 L 11.295526 21.04545 C 10.856175 21.4848 10.14387 21.4848 9.704535 21.04545 Z"/>
    <path id="onearrowdownredfilled" fill="#710801" fill-rule="evenodd" stroke="none" d="M 2.19672 2.196705 C 2.3e-05 4.393394 2.3e-05 7.928925 2.3e-05 15 C 2.3e-05 22.070999 2.3e-05 25.606651 2.19672 27.803249 C 4.393425 30 7.928956 30 15 30 C 22.07115 30 25.606651 30 27.803249 27.803249 C 30 25.606651 30 22.070999 30 15 C 30 7.928925 30 4.393394 27.803249 2.196705 C 25.606651 0 22.07115 0 15 0 C 7.928956 0 4.393425 0 2.19672 2.196705 Z M 9.704535 11.954504 C 10.14387 11.515171 10.856175 11.515171 11.295526 11.954504 L 15 15.658949 L 18.70455 11.954504 C 19.1439 11.515171 19.856251 11.515171 20.29545 11.954504 C 20.7348 12.393841 20.7348 13.106159 20.29545 13.545494 L 15.79545 18.04545 C 15.58455 18.2565 15.29835 18.375 15 18.375 C 14.70165 18.375 14.41551 18.2565 14.204535 18.04545 L 9.704535 13.545494 C 9.265185 13.106159 9.265185 12.393841 9.704535 11.954504 Z"/>
    <path id="Path" fill="#710801" fill-rule="evenodd" stroke="none" visibility="hidden" d="M 27.803282 2.196751 C 25.606577 0 22.071045 0 15 0 C 7.92885 0 4.39335 0 2.19675 2.196751 C 0 4.393349 0 7.928999 0 15 C 0 22.071075 0 25.606606 2.19675 27.803295 C 4.39335 30 7.92885 30 15 30 C 22.071045 30 25.606577 30 27.803282 27.803295 C 29.999977 25.606606 29.999977 22.071075 29.999977 15 C 29.999977 7.928999 29.999977 4.393349 27.803282 2.196751 Z M 20.295465 16.545494 C 20.734816 16.106159 20.734816 15.39384 20.295465 14.95455 C 19.856131 14.5152 19.143824 14.5152 18.704473 14.95455 L 15 18.659012 L 11.29545 14.95455 C 10.8561 14.5152 10.14375 14.5152 9.70455 14.95455 C 9.2652 15.39384 9.2652 16.106159 9.70455 16.545494 L 14.20455 21.045496 C 14.64375 21.484829 15.356131 21.484829 15.795481 21.045496 L 20.295465 16.545494 Z M 20.295465 8.95455 C 20.734816 9.3939 20.734816 10.1061 20.295465 10.54545 L 15.795481 15.045494 C 15.356131 15.484831 14.64375 15.484831 14.20455 15.045494 L 9.70455 10.54545 C 9.2652 10.1061 9.2652 9.3939 9.70455 8.95455 C 10.14375 8.5152 10.8561 8.5152 11.29545 8.95455 L 15 12.658949 L 18.704473 8.95455 C 19.143824 8.5152 19.856131 8.5152 20.295465 8.95455 Z"/>
</svg>
