<?xml version="1.0" encoding="UTF-8"?>
<!-- Generated by Pixelmator Pro 3.3.12 -->
<svg width="30" height="30" viewBox="0 0 30 30" xmlns="http://www.w3.org/2000/svg">
    <path id="Path" fill="#710801" fill-rule="evenodd" stroke="none"
        d="M 2.19672 2.196705 C 2.3e-05 4.393394 2.3e-05 7.928925 2.3e-05 15 C 2.3e-05 22.070999 2.3e-05 25.606651 2.19672 27.803249 C 4.393425 30 7.928956 30 15 30 C 22.07115 30 25.606651 30 27.803249 27.803249 C 30 25.606651 30 22.070999 30 15 C 30 7.928925 30 4.393394 27.803249 2.196705 C 25.606651 0 22.07115 0 15 0 C 7.928956 0 4.393425 0 2.19672 2.196705 Z M 9.704535 11.954504 C 10.14387 11.515171 10.856175 11.515171 11.295526 11.954504 L 15 15.658949 L 18.70455 11.954504 C 19.1439 11.515171 19.856251 11.515171 20.29545 11.954504 C 20.7348 12.393841 20.7348 13.106159 20.29545 13.545494 L 15.79545 18.04545 C 15.58455 18.2565 15.29835 18.375 15 18.375 C 14.70165 18.375 14.41551 18.2565 14.204535 18.04545 L 9.704535 13.545494 C 9.265185 13.106159 9.265185 12.393841 9.704535 11.954504 Z" />
</svg>