<?xml version="1.0" encoding="UTF-8"?>
<!-- Generated by Pixelmator Pro 3.3.12 -->
<svg width="30" height="30" viewBox="0 0 30 30" xmlns="http://www.w3.org/2000/svg">
    <path id="Path" fill="#037101" fill-rule="evenodd" stroke="none" d="M 14.919945 0 L 15.0801 0 C 18.30105 -1.7e-05 20.825251 -3.1e-05 22.794899 0.264765 C 24.810751 0.535795 26.401501 1.101385 27.650099 2.34996 C 28.898548 3.59853 29.464199 5.189266 29.735249 7.205173 C 30 9.17469 30 11.698935 30 14.919945 L 30 15.0801 C 30 18.30105 30 20.825251 29.735249 22.794899 C 29.464199 24.810751 28.898548 26.401501 27.650099 27.650099 C 26.401501 28.898548 24.810751 29.464199 22.794899 29.735249 C 20.825251 30 18.30105 30 15.0801 30 L 14.919945 30 C 11.698936 30 9.17469 30 7.205175 29.735249 C 5.189265 29.464199 3.59853 28.898548 2.34996 27.650099 C 1.101385 26.401501 0.535795 24.810751 0.264763 22.794899 C -3.2e-05 20.825251 -1.8e-05 18.30105 0 15.0801 L 0 14.91993 C -1.8e-05 11.698921 -3.2e-05 9.17469 0.264763 7.205173 C 0.535795 5.189266 1.101385 3.59853 2.34996 2.34996 C 3.59853 1.101385 5.189265 0.535795 7.205175 0.264765 C 9.17469 -3.1e-05 11.69892 -1.7e-05 14.919945 0 Z M 7.484055 2.339115 C 5.70024 2.578949 4.624815 3.035084 3.82995 3.829948 C 3.035085 4.624815 2.57895 5.700239 2.339115 7.484055 C 2.095245 9.297989 2.093025 11.681551 2.093025 15 C 2.093025 18.318451 2.095245 20.70195 2.339115 22.5159 C 2.57895 24.299702 3.035085 25.375198 3.82995 26.170048 C 4.624815 26.964901 5.70024 27.421051 7.484055 27.6609 C 9.29799 27.9048 11.68155 27.907051 15 27.907051 C 18.318451 27.907051 20.70195 27.9048 22.5159 27.6609 C 24.299702 27.421051 25.375198 26.964901 26.170048 26.170048 C 26.964901 25.375198 27.421051 24.299702 27.6609 22.5159 C 27.9048 20.70195 27.907051 18.318451 27.907051 15 C 27.907051 11.681551 27.9048 9.297989 27.6609 7.484055 C 27.421051 5.700239 26.964901 4.624815 26.170048 3.829948 C 25.375198 3.035084 24.299702 2.578949 22.5159 2.339115 C 20.70195 2.095245 18.318451 2.093025 15 2.093025 C 11.68155 2.093025 9.29799 2.095245 7.484055 2.339115 Z M 15 11.596275 L 11.553946 15.0423 C 11.145255 15.45105 10.482645 15.45105 10.073956 15.0423 C 9.665265 14.63364 9.665265 13.971014 10.073956 13.562325 L 14.260005 9.376289 C 14.668695 8.9676 15.331349 8.9676 15.73995 9.376289 L 19.926001 13.562325 C 20.334751 13.971014 20.334751 14.63364 19.926001 15.0423 C 19.517399 15.45105 18.8547 15.45105 18.4461 15.0423 L 15 11.596275 Z M 15 17.1777 L 11.553946 20.62365 C 11.145255 21.0324 10.482645 21.0324 10.073956 20.62365 C 9.665265 20.21505 9.665265 19.552349 10.073956 19.143749 L 14.260005 14.957685 C 14.668695 14.548996 15.331349 14.548996 15.73995 14.957685 L 19.926001 19.143749 C 20.334751 19.552349 20.334751 20.21505 19.926001 20.62365 C 19.517399 21.0324 18.8547 21.0324 18.4461 20.62365 L 15 17.1777 Z"/>
</svg>
