<?xml version="1.0" encoding="UTF-8"?>
<!-- Generated by Pixelmator Pro 3.5.7 -->
<svg width="30" height="30" viewBox="0 0 30 30" xmlns="http://www.w3.org/2000/svg">
    <path id="Rectangle" fill="#ffffff" fill-rule="evenodd" stroke="none" d="M 8 21 L 22 21 L 22 7 L 8 7 Z"/>
    <path id="Path" fill="#710801" fill-rule="evenodd" stroke="none" d="M 27.803282 2.196751 C 25.606577 0 22.071045 0 15 0 C 7.92885 0 4.39335 0 2.19675 2.196751 C 0 4.393349 0 7.928999 0 15 C 0 22.071075 0 25.606606 2.19675 27.803295 C 4.39335 30 7.92885 30 15 30 C 22.071045 30 25.606577 30 27.803282 27.803295 C 29.999977 25.606606 29.999977 22.071075 29.999977 15 C 29.999977 7.928999 29.999977 4.393349 27.803282 2.196751 Z M 20.295465 16.545494 C 20.734816 16.106159 20.734816 15.39384 20.295465 14.95455 C 19.856131 14.5152 19.143824 14.5152 18.704473 14.95455 L 15 18.659012 L 11.29545 14.95455 C 10.8561 14.5152 10.14375 14.5152 9.70455 14.95455 C 9.2652 15.39384 9.2652 16.106159 9.70455 16.545494 L 14.20455 21.045496 C 14.64375 21.484829 15.356131 21.484829 15.795481 21.045496 L 20.295465 16.545494 Z M 20.295465 8.95455 C 20.734816 9.3939 20.734816 10.1061 20.295465 10.54545 L 15.795481 15.045494 C 15.356131 15.484831 14.64375 15.484831 14.20455 15.045494 L 9.70455 10.54545 C 9.2652 10.1061 9.2652 9.3939 9.70455 8.95455 C 10.14375 8.5152 10.8561 8.5152 11.29545 8.95455 L 15 12.658949 L 18.704473 8.95455 C 19.143824 8.5152 19.856131 8.5152 20.295465 8.95455 Z"/>
</svg>
