<?xml version="1.0" encoding="UTF-8"?>
<!-- Generated by Pixelmator Pro 3.3.12 -->
<svg width="30" height="30" viewBox="0 0 30 30" xmlns="http://www.w3.org/2000/svg">
    <path id="Path" fill="#037101" fill-rule="evenodd" stroke="none" d="M 2.19672 27.803249 C 4.393425 30 7.928956 30 15 30 C 22.07115 30 25.606651 30 27.803249 27.803249 C 30 25.606651 30 22.070999 30 15 C 30 7.928925 30 4.393394 27.803249 2.196705 C 25.606651 0 22.07115 0 15 0 C 7.928956 0 4.393425 0 2.19672 2.196705 C 2.3e-05 4.393394 2.3e-05 7.928925 2.3e-05 15 C 2.3e-05 22.070999 2.3e-05 25.606651 2.19672 27.803249 Z M 9.704535 13.454506 C 9.265185 13.893841 9.265185 14.60616 9.704535 15.04545 C 10.14387 15.4848 10.856175 15.4848 11.295526 15.04545 L 15 11.340988 L 18.70455 15.04545 C 19.1439 15.4848 19.856251 15.4848 20.29545 15.04545 C 20.7348 14.60616 20.7348 13.893841 20.29545 13.454506 L 15.79545 8.954504 C 15.356251 8.515171 14.64387 8.515171 14.20452 8.954504 L 9.704535 13.454506 Z M 9.704535 21.04545 C 9.265185 20.6061 9.265185 19.8939 9.704535 19.45455 L 14.20452 14.954506 C 14.64387 14.515169 15.356251 14.515169 15.79545 14.954506 L 20.29545 19.45455 C 20.7348 19.8939 20.7348 20.6061 20.29545 21.04545 C 19.856251 21.4848 19.1439 21.4848 18.70455 21.04545 L 15 17.341051 L 11.295526 21.04545 C 10.856175 21.4848 10.14387 21.4848 9.704535 21.04545 Z"/>
</svg>
