<?xml version="1.0" encoding="UTF-8"?>
<!-- Generated by Pixelmator Pro 3.5.7 -->
<svg width="30" height="30" viewBox="0 0 30 30" xmlns="http://www.w3.org/2000/svg">
    <path id="Rounded-Rectangle" fill="#ffffff" fill-rule="evenodd" stroke="none" d="M 2 24 C 2 26.209139 3.790861 28 6 28 L 24 28 C 26.209139 28 28 26.209139 28 24 L 28 6 C 28 3.790861 26.209139 2 24 2 L 6 2 C 3.790861 2 2 3.790861 2 6 Z"/>
    <path id="twoarrowsupgreenoutline" fill="#037101" fill-rule="evenodd" stroke="none" d="M 14.919945 0 L 15.0801 0 C 18.30105 -1.7e-05 20.825251 -3.1e-05 22.794899 0.264765 C 24.810751 0.535795 26.401501 1.101385 27.650099 2.34996 C 28.898548 3.59853 29.464199 5.189266 29.735249 7.205173 C 30 9.17469 30 11.698935 30 14.919945 L 30 15.0801 C 30 18.30105 30 20.825251 29.735249 22.794899 C 29.464199 24.810751 28.898548 26.401501 27.650099 27.650099 C 26.401501 28.898548 24.810751 29.464199 22.794899 29.735249 C 20.825251 30 18.30105 30 15.0801 30 L 14.919945 30 C 11.698936 30 9.17469 30 7.205175 29.735249 C 5.189265 29.464199 3.59853 28.898548 2.34996 27.650099 C 1.101385 26.401501 0.535795 24.810751 0.264763 22.794899 C -3.2e-05 20.825251 -1.8e-05 18.30105 -0 15.0801 L -0 14.91993 C -1.8e-05 11.698921 -3.2e-05 9.17469 0.264763 7.205173 C 0.535795 5.189266 1.101385 3.59853 2.34996 2.34996 C 3.59853 1.101385 5.189265 0.535795 7.205175 0.264765 C 9.17469 -3.1e-05 11.69892 -1.7e-05 14.919945 0 Z M 7.484055 2.339115 C 5.70024 2.578949 4.624815 3.035084 3.82995 3.829948 C 3.035085 4.624815 2.57895 5.700239 2.339115 7.484055 C 2.095245 9.297989 2.093025 11.681551 2.093025 15 C 2.093025 18.318451 2.095245 20.70195 2.339115 22.5159 C 2.57895 24.299702 3.035085 25.375198 3.82995 26.170048 C 4.624815 26.964901 5.70024 27.421051 7.484055 27.6609 C 9.29799 27.9048 11.68155 27.907051 15 27.907051 C 18.318451 27.907051 20.70195 27.9048 22.5159 27.6609 C 24.299702 27.421051 25.375198 26.964901 26.170048 26.170048 C 26.964901 25.375198 27.421051 24.299702 27.6609 22.5159 C 27.9048 20.70195 27.907051 18.318451 27.907051 15 C 27.907051 11.681551 27.9048 9.297989 27.6609 7.484055 C 27.421051 5.700239 26.964901 4.624815 26.170048 3.829948 C 25.375198 3.035084 24.299702 2.578949 22.5159 2.339115 C 20.70195 2.095245 18.318451 2.093025 15 2.093025 C 11.68155 2.093025 9.29799 2.095245 7.484055 2.339115 Z M 15 11.596275 L 11.553946 15.0423 C 11.145255 15.45105 10.482645 15.45105 10.073956 15.0423 C 9.665265 14.63364 9.665265 13.971014 10.073956 13.562325 L 14.260005 9.376289 C 14.668695 8.9676 15.331349 8.9676 15.73995 9.376289 L 19.926001 13.562325 C 20.334751 13.971014 20.334751 14.63364 19.926001 15.0423 C 19.517399 15.45105 18.8547 15.45105 18.4461 15.0423 L 15 11.596275 Z M 15 17.1777 L 11.553946 20.62365 C 11.145255 21.0324 10.482645 21.0324 10.073956 20.62365 C 9.665265 20.21505 9.665265 19.552349 10.073956 19.143749 L 14.260005 14.957685 C 14.668695 14.548996 15.331349 14.548996 15.73995 14.957685 L 19.926001 19.143749 C 20.334751 19.552349 20.334751 20.21505 19.926001 20.62365 C 19.517399 21.0324 18.8547 21.0324 18.4461 20.62365 L 15 17.1777 Z"/>
    <path id="onearrowupoutline" fill="#037101" fill-rule="evenodd" stroke="none" visibility="hidden" d="M 14.91996 0 L 15.0801 0 C 18.30105 -1.7e-05 20.825401 -3.1e-05 22.794901 0.264765 C 24.810751 0.535795 26.401501 1.101385 27.650099 2.34996 C 28.898701 3.59853 29.464199 5.189266 29.73525 7.205173 C 30 9.17469 30 11.698935 30 14.919945 L 30 15.0801 C 30 18.30105 30 20.825251 29.73525 22.794899 C 29.464199 24.810751 28.898701 26.401501 27.650099 27.650099 C 26.401501 28.898548 24.810751 29.464199 22.794901 29.735249 C 20.825401 30 18.30105 30 15.0801 30 L 14.919974 30 C 11.698951 30 9.174705 30 7.20519 29.735249 C 5.18928 29.464199 3.598545 28.898548 2.349975 27.650099 C 1.10141 26.401501 0.535818 24.810751 0.264786 22.794899 C -9e-06 20.825251 5e-06 18.30105 2.3e-05 15.0801 L 2.3e-05 14.91993 C 5e-06 11.698921 -9e-06 9.17469 0.264786 7.205173 C 0.535818 5.189266 1.10141 3.59853 2.349975 2.34996 C 3.598545 1.101385 5.18928 0.535795 7.20519 0.264765 C 9.174705 -3.1e-05 11.698951 -1.7e-05 14.91996 0 Z M 7.484085 2.339115 C 5.70027 2.578949 4.624845 3.035084 3.829965 3.829948 C 3.0351 4.624815 2.57898 5.700239 2.339145 7.484055 C 2.095275 9.297989 2.09304 11.681551 2.09304 15 C 2.09304 18.318451 2.095275 20.70195 2.339145 22.5159 C 2.57898 24.299702 3.0351 25.375198 3.829965 26.170048 C 4.624845 26.964901 5.70027 27.421051 7.484085 27.6609 C 9.298005 27.9048 11.681565 27.907051 15 27.907051 C 18.318451 27.907051 20.702101 27.9048 22.5159 27.6609 C 24.29985 27.421051 25.3752 26.964901 26.17005 26.170048 C 26.964901 25.375198 27.421051 24.299702 27.6609 22.5159 C 27.904802 20.70195 27.907051 18.318451 27.907051 15 C 27.907051 11.681551 27.904802 9.297989 27.6609 7.484055 C 27.421051 5.700239 26.964901 4.624815 26.17005 3.829948 C 25.3752 3.035084 24.29985 2.578949 22.5159 2.339115 C 20.702101 2.095245 18.318451 2.093025 15 2.093025 C 11.681565 2.093025 9.298005 2.095245 7.484085 2.339115 Z M 10.073985 16.353001 L 14.260036 12.166979 C 14.668711 11.758289 15.331349 11.758289 15.739951 12.166979 L 19.926001 16.353001 C 20.334751 16.761751 20.334751 17.424301 19.926001 17.83305 C 19.517399 18.24165 18.8547 18.24165 18.4461 17.83305 L 15 14.386965 L 11.553975 17.83305 C 11.145286 18.24165 10.482676 18.24165 10.073985 17.83305 C 9.665296 17.424301 9.665296 16.761751 10.073985 16.353001 Z"/>
    <path id="onearrowdownredoutline" fill="#710801" fill-rule="evenodd" stroke="none" visibility="hidden" d="M 14.91996 0 L 15.0801 0 C 18.30105 -1.7e-05 20.825401 -3.1e-05 22.794901 0.264765 C 24.810751 0.535795 26.401501 1.101385 27.650099 2.34996 C 28.898701 3.59853 29.464199 5.189266 29.73525 7.205173 C 30 9.17469 30 11.698935 30 14.919945 L 30 15.0801 C 30 18.30105 30 20.825251 29.73525 22.794899 C 29.464199 24.810751 28.898701 26.401501 27.650099 27.650099 C 26.401501 28.898548 24.810751 29.464199 22.794901 29.735249 C 20.825401 30 18.30105 30 15.0801 30 L 14.919974 30 C 11.698951 30 9.174705 30 7.20519 29.735249 C 5.18928 29.464199 3.598545 28.898548 2.349975 27.650099 C 1.10141 26.401501 0.535818 24.810751 0.264786 22.794899 C -9e-06 20.825251 5e-06 18.30105 2.3e-05 15.0801 L 2.3e-05 14.91993 C 5e-06 11.698921 -9e-06 9.17469 0.264786 7.205173 C 0.535818 5.189266 1.10141 3.59853 2.349975 2.34996 C 3.598545 1.101385 5.18928 0.535795 7.20519 0.264765 C 9.174705 -3.1e-05 11.698951 -1.7e-05 14.91996 0 Z M 7.484085 2.339115 C 5.70027 2.578949 4.624845 3.035084 3.829965 3.829948 C 3.0351 4.624815 2.57898 5.700239 2.339145 7.484055 C 2.095275 9.297989 2.09304 11.681551 2.09304 15 C 2.09304 18.318451 2.095275 20.70195 2.339145 22.5159 C 2.57898 24.299702 3.0351 25.375198 3.829965 26.170048 C 4.624845 26.964901 5.70027 27.421051 7.484085 27.6609 C 9.298005 27.9048 11.681565 27.907051 15 27.907051 C 18.318451 27.907051 20.702101 27.9048 22.5159 27.6609 C 24.29985 27.421051 25.3752 26.964901 26.17005 26.170048 C 26.964901 25.375198 27.421051 24.299702 27.6609 22.5159 C 27.904802 20.70195 27.907051 18.318451 27.907051 15 C 27.907051 11.681551 27.904802 9.297989 27.6609 7.484055 C 27.421051 5.700239 26.964901 4.624815 26.17005 3.829948 C 25.3752 3.035084 24.29985 2.578949 22.5159 2.339115 C 20.702101 2.095245 18.318451 2.093025 15 2.093025 C 11.681565 2.093025 9.298005 2.095245 7.484085 2.339115 Z M 10.073985 12.166979 C 10.482676 11.758289 11.145286 11.758289 11.553975 12.166979 L 15 15.61305 L 18.4461 12.166979 C 18.8547 11.758289 19.517399 11.758289 19.926001 12.166979 C 20.334751 12.575668 20.334751 13.238279 19.926001 13.646969 L 15.739951 17.83305 C 15.331349 18.24165 14.668711 18.24165 14.260036 17.83305 L 10.073985 13.646969 C 9.665296 13.238279 9.665296 12.575668 10.073985 12.166979 Z"/>
    <path id="Path" fill="#710801" fill-rule="evenodd" stroke="none" visibility="hidden" d="M 14.91996 0 L 15.0801 0 C 18.30105 -1.7e-05 20.825401 -3.1e-05 22.794901 0.264765 C 24.810751 0.535795 26.401501 1.101385 27.650099 2.34996 C 28.898701 3.59853 29.464199 5.189266 29.73525 7.205173 C 30 9.17469 30 11.698935 30 14.919945 L 30 15.0801 C 30 18.30105 30 20.825251 29.73525 22.794899 C 29.464199 24.810751 28.898701 26.401501 27.650099 27.650099 C 26.401501 28.898548 24.810751 29.464199 22.794901 29.735249 C 20.825401 30 18.30105 30 15.0801 30 L 14.919974 30 C 11.698951 30 9.174705 30 7.20519 29.735249 C 5.18928 29.464199 3.598545 28.898548 2.349975 27.650099 C 1.10141 26.401501 0.535818 24.810751 0.264786 22.794899 C -9e-06 20.825251 5e-06 18.30105 2.3e-05 15.0801 L 2.3e-05 14.91993 C 5e-06 11.698921 -9e-06 9.17469 0.264786 7.205173 C 0.535818 5.189266 1.10141 3.59853 2.349975 2.34996 C 3.598545 1.101385 5.18928 0.535795 7.20519 0.264765 C 9.174705 -3.1e-05 11.698951 -1.7e-05 14.91996 0 Z M 7.484085 2.339115 C 5.70027 2.578949 4.624845 3.035084 3.829965 3.829948 C 3.0351 4.624815 2.57898 5.700239 2.339145 7.484055 C 2.095275 9.297989 2.09304 11.681551 2.09304 15 C 2.09304 18.318451 2.095275 20.70195 2.339145 22.5159 C 2.57898 24.299702 3.0351 25.375198 3.829965 26.170048 C 4.624845 26.964901 5.70027 27.421051 7.484085 27.6609 C 9.298005 27.9048 11.681565 27.907051 15 27.907051 C 18.318451 27.907051 20.702101 27.9048 22.5159 27.6609 C 24.29985 27.421051 25.3752 26.964901 26.17005 26.170048 C 26.964901 25.375198 27.421051 24.299702 27.6609 22.5159 C 27.904802 20.70195 27.907051 18.318451 27.907051 15 C 27.907051 11.681551 27.904802 9.297989 27.6609 7.484055 C 27.421051 5.700239 26.964901 4.624815 26.17005 3.829948 C 25.3752 3.035084 24.29985 2.578949 22.5159 2.339115 C 20.702101 2.095245 18.318451 2.093025 15 2.093025 C 11.681565 2.093025 9.298005 2.095245 7.484085 2.339115 Z M 10.073985 9.376289 C 10.482676 8.9676 11.145286 8.9676 11.553975 9.376289 L 15 12.82233 L 18.4461 9.376289 C 18.8547 8.9676 19.517399 8.9676 19.926001 9.376289 C 20.334751 9.784981 20.334751 10.44759 19.926001 10.856281 L 15.739951 15.0423 C 15.331349 15.45105 14.668711 15.45105 14.260036 15.0423 L 10.073985 10.856281 C 9.665296 10.44759 9.665296 9.784981 10.073985 9.376289 Z M 10.073985 14.957685 C 10.482676 14.548996 11.145286 14.548996 11.553975 14.957685 L 15 18.403801 L 18.4461 14.957685 C 18.8547 14.548996 19.517399 14.548996 19.926001 14.957685 C 20.334751 15.3663 20.334751 16.028999 19.926001 16.437599 L 15.739951 20.62365 C 15.331349 21.0324 14.668711 21.0324 14.260036 20.62365 L 10.073985 16.437599 C 9.665296 16.028999 9.665296 15.3663 10.073985 14.957685 Z"/>
</svg>
